<svg width="18" height="18" viewBox="0 0 18 18" fill="none" xmlns="http://www.w3.org/2000/svg">
<g clip-path="url(#clip0)">
<path fill-rule="evenodd" clip-rule="evenodd" d="M9.00002 0C6.61388 0.00264685 4.32625 0.951662 2.63899 2.63892C0.95174 4.32617 0.00266353 6.61386 1.66806e-05 9C-0.00364733 10.8941 0.596395 12.7401 1.71303 14.27L0.591997 17.6201L4.05104 16.51C5.51615 17.4871 7.23899 18.0058 9.00002 18C11.387 18 13.6761 17.0518 15.364 15.364C17.0518 13.6762 18 11.3869 18 9C18 6.61305 17.0518 4.32381 15.364 2.63599C13.6761 0.948159 11.387 0 9.00002 0ZM14.237 12.71C14.0543 13.0386 13.8013 13.3229 13.496 13.5425C13.1908 13.762 12.8408 13.9114 12.471 13.98C12.001 14.08 11.386 14.16 9.31801 13.3C7.4929 12.4112 5.94422 11.0423 4.83803 9.34009C4.22619 8.55967 3.85472 7.61783 3.769 6.62988C3.75759 6.22039 3.83379 5.81323 3.99245 5.43555C4.15111 5.05787 4.38862 4.71844 4.68904 4.43994C4.94334 4.21926 5.27267 4.10488 5.60903 4.12012C5.70913 4.11814 5.80926 4.12125 5.90901 4.12988C6.04279 4.11419 6.17738 4.15143 6.28407 4.23364C6.39076 4.31586 6.46108 4.43671 6.48 4.57007C6.697 5.09007 7.22602 6.39002 7.28902 6.52002C7.33397 6.59274 7.3609 6.67526 7.36751 6.7605C7.37412 6.84574 7.36025 6.93122 7.32704 7.01001C7.24916 7.15929 7.15124 7.29714 7.03603 7.41992C6.90303 7.56992 6.77704 7.6901 6.64504 7.8501C6.56076 7.91344 6.50315 8.00579 6.48354 8.10938C6.46393 8.21296 6.48372 8.32015 6.53902 8.40991C6.93553 9.0837 7.4273 9.69676 7.99904 10.23C8.61507 10.7917 9.33112 11.2327 10.11 11.53C10.2134 11.5795 10.3294 11.5965 10.4426 11.5786C10.5558 11.5608 10.6609 11.5088 10.744 11.4299C10.944 11.2099 11.194 10.85 11.444 10.5C11.5071 10.3918 11.6085 10.3112 11.7281 10.2742C11.8477 10.2371 11.9769 10.2464 12.09 10.3C12.333 10.39 13.619 11.0199 13.883 11.1499C14.0699 11.2164 14.2404 11.3222 14.383 11.46C14.4549 11.8818 14.405 12.3155 14.239 12.71H14.237Z" fill="#4ECB5B"/>
</g>
<defs>
<clipPath id="clip0">
<rect width="18" height="18" fill="white"/>
</clipPath>
</defs>
</svg>
