<svg width="18" height="18" viewBox="0 0 18 18" fill="none" xmlns="http://www.w3.org/2000/svg">
<g clip-path="url(#clip0)">
<path fill-rule="evenodd" clip-rule="evenodd" d="M17.594 14.24L14.815 11.46C14.6789 11.3277 14.5181 11.2237 14.3418 11.1536C14.1654 11.0835 13.977 11.0488 13.7873 11.0515C13.5975 11.0543 13.4102 11.0945 13.236 11.1697C13.0618 11.2449 12.9041 11.3538 12.7719 11.49L11.372 12.8999C11.283 12.8499 11.1919 12.8 11.0949 12.74C9.85606 12.101 8.72096 11.2784 7.728 10.3001C6.75019 9.30156 5.92736 8.16214 5.28696 6.91995C5.23496 6.81995 5.187 6.72993 5.137 6.64993L6.07596 5.70999L6.538 5.24002C6.8135 4.97239 6.97198 4.60672 6.97892 4.22269C6.98585 3.83866 6.84065 3.46737 6.57498 3.18997L3.79697 0.409943C3.66084 0.277221 3.49971 0.172973 3.32291 0.103058C3.14611 0.0331428 2.9572 -0.00100566 2.76712 0.00271596C2.57704 0.00643758 2.38959 0.0480046 2.21567 0.124786C2.04175 0.201568 1.88483 0.312033 1.754 0.449982L0.969943 1.24002L0.991977 1.26004C0.721014 1.60554 0.503561 1.98973 0.346957 2.39993C0.202772 2.77302 0.106051 3.16289 0.0589933 3.56009C-0.308007 6.61009 1.08198 9.38996 4.85898 13.18C10.074 18.41 14.277 18.01 14.459 17.99C14.8564 17.9467 15.246 17.8491 15.617 17.7C16.0238 17.5424 16.4057 17.3269 16.7509 17.0601L16.768 17.0701L17.562 16.2901C17.8361 16.0214 17.9932 15.6553 17.9992 15.2715C18.0052 14.8877 17.8595 14.5171 17.594 14.24V14.24Z" fill="#0090B8"/>
</g>
<defs>
<clipPath id="clip0">
<rect width="18" height="18" fill="white"/>
</clipPath>
</defs>
</svg>
