<svg width="18" height="13" viewBox="0 0 18 13" fill="none" xmlns="http://www.w3.org/2000/svg">
<g clip-path="url(#clip0)">
<path fill-rule="evenodd" clip-rule="evenodd" d="M6.77301 7.12992L0.406006 12.6499C0.645866 12.8766 0.963971 13.0021 1.29401 13H16.705C17.0344 13.002 17.3519 12.8765 17.591 12.6499L11.227 7.12992L9 9.10014L6.77301 7.12992ZM16.705 3.96995e-05H1.29401C0.964909 -0.0017874 0.647823 0.123708 0.408997 0.350137L9 7.80009L17.593 0.350137C17.3534 0.122987 17.0351 -0.00256391 16.705 3.96995e-05V3.96995e-05ZM0 11.94L6.21399 6.60014L0 1.13993V11.94ZM18 11.94V1.13993L11.786 6.60014L18 11.94Z" fill="#3D3939"/>
</g>
<defs>
<clipPath id="clip0">
<rect width="18" height="13" fill="white"/>
</clipPath>
</defs>
</svg>
