<svg width="14" height="20" viewBox="0 0 14 20" fill="none" xmlns="http://www.w3.org/2000/svg">
<g clip-path="url(#clip0)">
<path fill-rule="evenodd" clip-rule="evenodd" d="M7.00002 0C5.0968 0.0508196 3.29131 0.854064 1.97921 2.23364C0.667112 3.61322 -0.0445861 5.45673 2.43874e-05 7.36011C-0.00480937 8.39482 0.203518 9.41945 0.612024 10.3701C2.25152 13.7684 4.2975 16.955 6.70504 19.8601C6.74077 19.9038 6.78574 19.9389 6.83676 19.9631C6.88777 19.9873 6.94356 20 7.00002 20C7.05649 20 7.11227 19.9873 7.16329 19.9631C7.21431 19.9389 7.25927 19.9038 7.29501 19.8601C9.7022 16.9547 11.7482 13.7681 13.388 10.3701C13.7965 9.41945 14.0049 8.39482 14 7.36011C14.043 5.45718 13.3308 3.61458 12.019 2.23535C10.7072 0.856123 8.90272 0.0523865 7.00002 0ZM7.00002 11.1899C6.23545 11.2287 5.47681 11.0375 4.82198 10.6409C4.16715 10.2443 3.64617 9.66063 3.32632 8.96509C3.00647 8.26955 2.90241 7.49403 3.02755 6.73877C3.15269 5.98351 3.50126 5.28324 4.02834 4.72803C4.55543 4.17282 5.23684 3.78822 5.98458 3.62402C6.73233 3.45983 7.51214 3.52359 8.22335 3.80688C8.93456 4.09018 9.54452 4.58003 9.97457 5.21338C10.4046 5.84673 10.635 6.59455 10.636 7.36011C10.6597 8.34959 10.2904 9.30807 9.60891 10.0259C8.92746 10.7437 7.9894 11.1622 7.00002 11.1899Z" fill="#E74C3C"/>
</g>
<defs>
<clipPath id="clip0">
<rect width="14" height="20" fill="white"/>
</clipPath>
</defs>
</svg>
