<svg width="139" height="127" viewBox="0 0 139 127" fill="none" xmlns="http://www.w3.org/2000/svg">
<path d="M67.5 127C104.779 127 135 98.5701 135 63.5C135 28.4299 104.779 0 67.5 0C30.2208 0 0 28.4299 0 63.5C0 98.5701 30.2208 127 67.5 127Z" fill="#B72E2E"/>
<path d="M79.36 108V69.36H54.64V108H44.2V24H54.64V60.48H79.36V24H89.8V108H79.36Z" fill="#3C434A"/>
<path d="M128.32 50.04C128.32 44.04 127.48 39.52 125.8 36.48C124.2 33.36 121.24 31.8 116.92 31.8C113.56 31.8 110.84 31.92 108.76 32.16C107.56 32.32 106.52 32.44 105.64 32.52V67.56H116.92C118.6 67.56 120.12 67.28 121.48 66.72C122.92 66.08 124.12 65.08 125.08 63.72C126.12 62.36 126.92 60.56 127.48 58.32C128.04 56.08 128.32 53.32 128.32 50.04ZM139 49.2C139 53.76 138.56 57.76 137.68 61.2C136.88 64.56 135.56 67.36 133.72 69.6C131.88 71.84 129.48 73.52 126.52 74.64C123.56 75.76 119.96 76.32 115.72 76.32H105.64V108H95.2V24C97.2 23.84 99.32 23.68 101.56 23.52C103.48 23.36 105.64 23.28 108.04 23.28C110.52 23.2 113 23.16 115.48 23.16C120.04 23.16 123.84 23.84 126.88 25.2C129.92 26.48 132.32 28.32 134.08 30.72C135.92 33.04 137.2 35.8 137.92 39C138.64 42.12 139 45.52 139 49.2Z" fill="#3C434A"/>
<path d="M39.4 77.88C39.4 84.36 39 89.64 38.2 93.72C37.4 97.72 36.12 100.84 34.36 103.08C32.68 105.32 30.48 106.84 27.76 107.64C25.12 108.44 21.88 108.84 18.04 108.84C17.32 108.84 16.44 108.8 15.4 108.72C14.36 108.64 13.24 108.52 12.04 108.36C10.84 108.28 9.64001 108.16 8.44001 108C7.24001 107.92 6.16001 107.8 5.20001 107.64V98.76C6.08001 98.92 7.12001 99.08 8.32001 99.24C9.52001 99.32 10.68 99.44 11.8 99.6C13 99.68 14.08 99.76 15.04 99.84C16.08 99.84 16.84 99.84 17.32 99.84C19.48 99.84 21.28 99.6 22.72 99.12C24.24 98.64 25.44 97.68 26.32 96.24C27.28 94.72 27.96 92.56 28.36 89.76C28.76 86.96 28.96 83.28 28.96 78.72V32.76H9.64001V24H39.4V77.88Z" fill="#3C434A"/>
</svg>
