<svg width="769" height="125" viewBox="0 0 769 125" fill="none" xmlns="http://www.w3.org/2000/svg">
<ellipse cx="65" cy="62.5" rx="65" ry="62.5" fill="#8A2424"/>
<path d="M78.36 106V67.36H53.64V106H43.2V22H53.64V58.48H78.36V22H88.8V106H78.36Z" fill="#3C434A"/>
<path d="M173.384 78.264C173.384 80.9093 173.085 83.0853 172.488 84.792C171.891 86.4987 171.037 87.8427 169.928 88.824C168.819 89.8053 167.475 90.488 165.896 90.872C164.36 91.256 162.632 91.448 160.712 91.448C159.688 91.448 158.472 91.3627 157.064 91.192C155.656 91.0213 154.397 90.7867 153.288 90.488V85.816C154.269 86.072 155.421 86.3067 156.744 86.52C158.067 86.6907 159.603 86.776 161.352 86.776C163.571 86.776 165.171 86.136 166.152 84.856C167.176 83.576 167.688 81.592 167.688 78.904C167.688 77.368 167.581 76.088 167.368 75.064C167.155 73.9973 166.835 73.144 166.408 72.504C165.981 71.8213 165.427 71.3093 164.744 70.968C164.104 70.6267 163.357 70.3707 162.504 70.2C160.712 69.816 159.197 69.3253 157.96 68.728C156.723 68.1307 155.72 67.3627 154.952 66.424C154.184 65.4853 153.608 64.3333 153.224 62.968C152.883 61.6027 152.712 59.9813 152.712 58.104C152.712 55.8 153.011 53.88 153.608 52.344C154.248 50.7653 155.123 49.4853 156.232 48.504C157.384 47.5227 158.728 46.8187 160.264 46.392C161.8 45.9653 163.485 45.752 165.32 45.752C166.387 45.752 167.539 45.8587 168.776 46.072C170.056 46.2427 171.165 46.456 172.104 46.712V51.384C170.995 51.128 169.757 50.9147 168.392 50.744C167.027 50.5307 165.789 50.424 164.68 50.424C163.869 50.424 163.08 50.552 162.312 50.808C161.587 51.064 160.925 51.4693 160.328 52.024C159.773 52.5787 159.304 53.304 158.92 54.2C158.579 55.0533 158.408 56.12 158.408 57.4C158.408 58.68 158.472 59.768 158.6 60.664C158.728 61.5173 158.963 62.2213 159.304 62.776C159.688 63.3307 160.2 63.7787 160.84 64.12C161.48 64.4187 162.312 64.6747 163.336 64.888C164.872 65.1867 166.259 65.6133 167.496 66.168C168.733 66.7227 169.779 67.512 170.632 68.536C171.528 69.5173 172.211 70.7973 172.68 72.376C173.149 73.9547 173.384 75.9173 173.384 78.264ZM202.03 74.36C202.03 77.7307 201.774 80.5253 201.262 82.744C200.75 84.92 199.982 86.6693 198.958 87.992C197.934 89.272 196.654 90.168 195.118 90.68C193.625 91.192 191.875 91.448 189.87 91.448C187.907 91.448 186.158 91.192 184.622 90.68C183.129 90.168 181.87 89.272 180.846 87.992C179.822 86.6693 179.033 84.92 178.478 82.744C177.966 80.5253 177.71 77.7307 177.71 74.36C177.71 68.8987 178.691 64.9093 180.654 62.392C182.617 59.832 185.689 58.552 189.87 58.552C194.051 58.552 197.123 59.832 199.086 62.392C201.049 64.9093 202.03 68.8987 202.03 74.36ZM196.462 75.32C196.462 73.0587 196.355 71.1387 196.142 69.56C195.929 67.9813 195.566 66.7227 195.054 65.784C194.585 64.8027 193.923 64.0987 193.07 63.672C192.217 63.2453 191.15 63.032 189.87 63.032C188.59 63.032 187.523 63.2453 186.67 63.672C185.817 64.0987 185.134 64.8027 184.622 65.784C184.153 66.7227 183.811 67.9813 183.598 69.56C183.385 71.1387 183.278 73.0587 183.278 75.32C183.278 79.5013 183.769 82.488 184.75 84.28C185.731 86.072 187.438 86.968 189.87 86.968C192.302 86.968 194.009 86.072 194.99 84.28C195.971 82.488 196.462 79.5013 196.462 75.32ZM217.375 90.68C216.906 90.7653 216.351 90.872 215.711 91C215.114 91.128 214.388 91.192 213.535 91.192C212.895 91.192 212.255 91.0853 211.615 90.872C210.975 90.6587 210.399 90.2747 209.887 89.72C209.375 89.1653 208.948 88.4187 208.607 87.48C208.266 86.4987 208.095 85.2827 208.095 83.832V46.2H213.535V83.512C213.535 84.6213 213.663 85.4107 213.919 85.88C214.218 86.3067 214.794 86.52 215.647 86.52C215.988 86.52 216.308 86.4773 216.607 86.392C216.948 86.3067 217.204 86.2427 217.375 86.2V90.68ZM238.537 91L238.089 88.376C237.193 89.3573 236.147 90.1253 234.953 90.68C233.758 91.192 232.35 91.448 230.729 91.448C228.937 91.448 227.443 91.2133 226.249 90.744C225.097 90.2747 224.158 89.5707 223.433 88.632C222.75 87.6507 222.259 86.4347 221.961 84.984C221.662 83.5333 221.513 81.8267 221.513 79.864V59H226.953V80.504C226.953 81.528 226.995 82.424 227.081 83.192C227.209 83.96 227.443 84.6213 227.785 85.176C228.126 85.7307 228.595 86.1573 229.193 86.456C229.79 86.712 230.579 86.84 231.561 86.84C232.457 86.84 233.267 86.6693 233.993 86.328C234.718 85.9867 235.337 85.56 235.849 85.048C236.361 84.536 236.766 83.9813 237.065 83.384C237.363 82.744 237.534 82.1467 237.577 81.592V59H243.017V91H238.537ZM255.446 99.384C256.043 99.512 256.641 99.5973 257.238 99.64C257.878 99.7253 258.433 99.768 258.902 99.768C259.755 99.768 260.395 99.64 260.822 99.384C261.291 99.128 261.526 98.5947 261.526 97.784C261.526 97.4853 261.441 97.208 261.27 96.952C261.142 96.696 260.886 96.4827 260.502 96.312C260.118 96.184 259.585 96.0773 258.902 95.992C258.262 95.9067 257.409 95.864 256.342 95.864L257.046 91.192C255.723 90.9787 254.571 90.5733 253.59 89.976C252.609 89.336 251.777 88.376 251.094 87.096C250.454 85.816 249.963 84.152 249.622 82.104C249.281 80.0133 249.11 77.432 249.11 74.36C249.11 71.5013 249.323 69.0693 249.75 67.064C250.219 65.0587 250.902 63.4373 251.798 62.2C252.694 60.92 253.846 60.0027 255.254 59.448C256.662 58.8507 258.326 58.552 260.246 58.552C261.313 58.552 262.507 58.6587 263.83 58.872C265.195 59.0853 266.347 59.2987 267.286 59.512V64.248C266.091 63.992 264.961 63.7787 263.894 63.608C262.827 63.4373 261.483 63.352 259.862 63.352C258.923 63.352 258.134 63.544 257.494 63.928C256.854 64.312 256.321 64.9947 255.894 65.976C255.467 66.9147 255.147 68.1733 254.934 69.752C254.763 71.288 254.678 73.2507 254.678 75.64C254.678 78.0293 254.785 79.9493 254.998 81.4C255.254 82.8507 255.595 83.96 256.022 84.728C256.491 85.496 257.046 86.008 257.686 86.264C258.326 86.52 259.051 86.648 259.862 86.648C261.611 86.648 263.041 86.5413 264.15 86.328C265.302 86.1147 266.347 85.9013 267.286 85.688V90.424C266.39 90.68 265.409 90.8933 264.342 91.064C263.318 91.2347 262.294 91.3627 261.27 91.448L261.078 92.728C262.998 92.9413 264.363 93.4533 265.174 94.264C265.985 95.1173 266.39 96.3547 266.39 97.976C266.39 100.024 265.75 101.496 264.47 102.392C263.233 103.331 261.569 103.8 259.478 103.8C258.71 103.8 258.006 103.757 257.366 103.672C256.769 103.587 256.129 103.48 255.446 103.352V99.384ZM296.105 74.36C296.105 77.7307 295.849 80.5253 295.337 82.744C294.825 84.92 294.057 86.6693 293.033 87.992C292.009 89.272 290.729 90.168 289.193 90.68C287.7 91.192 285.95 91.448 283.945 91.448C281.982 91.448 280.233 91.192 278.697 90.68C277.204 90.168 275.945 89.272 274.921 87.992C273.897 86.6693 273.108 84.92 272.553 82.744C272.041 80.5253 271.785 77.7307 271.785 74.36C271.785 68.8987 272.766 64.9093 274.729 62.392C276.692 59.832 279.764 58.552 283.945 58.552C288.126 58.552 291.198 59.832 293.161 62.392C295.124 64.9093 296.105 68.8987 296.105 74.36ZM290.537 75.32C290.537 73.0587 290.43 71.1387 290.217 69.56C290.004 67.9813 289.641 66.7227 289.129 65.784C288.66 64.8027 287.998 64.0987 287.145 63.672C286.292 63.2453 285.225 63.032 283.945 63.032C282.665 63.032 281.598 63.2453 280.745 63.672C279.892 64.0987 279.209 64.8027 278.697 65.784C278.228 66.7227 277.886 67.9813 277.673 69.56C277.46 71.1387 277.353 73.0587 277.353 75.32C277.353 79.5013 277.844 82.488 278.825 84.28C279.806 86.072 281.513 86.968 283.945 86.968C286.377 86.968 288.084 86.072 289.065 84.28C290.046 82.488 290.537 79.5013 290.537 75.32ZM275.305 48.312C276.286 47.5013 277.225 46.9467 278.121 46.648C279.06 46.3493 279.956 46.2 280.809 46.2C281.577 46.2 282.26 46.328 282.857 46.584C283.497 46.84 284.094 47.1387 284.649 47.48C285.204 47.7787 285.758 48.056 286.313 48.312C286.868 48.568 287.465 48.696 288.105 48.696C289.214 48.696 290.132 48.504 290.857 48.12C291.582 47.6933 292.372 47.1173 293.225 46.392V51.064C292.372 51.8747 291.518 52.4293 290.665 52.728C289.812 53.0267 288.83 53.176 287.721 53.176C286.91 53.176 286.206 53.048 285.609 52.792C285.012 52.536 284.436 52.2587 283.881 51.96C283.369 51.6187 282.836 51.32 282.281 51.064C281.726 50.808 281.108 50.68 280.425 50.68C279.316 50.68 278.356 50.9147 277.545 51.384C276.734 51.8533 275.988 52.3867 275.305 52.984V48.312ZM306.65 76.92C306.693 79.0107 306.842 80.7173 307.098 82.04C307.397 83.32 307.781 84.3227 308.25 85.048C308.719 85.7733 309.274 86.264 309.914 86.52C310.554 86.7333 311.279 86.84 312.09 86.84C313.882 86.84 315.503 86.7333 316.954 86.52C318.447 86.264 319.685 86.0293 320.666 85.816V90.424C319.642 90.7227 318.341 90.9573 316.762 91.128C315.226 91.3413 313.882 91.448 312.73 91.448C310.895 91.448 309.253 91.256 307.802 90.872C306.394 90.488 305.199 89.72 304.218 88.568C303.237 87.416 302.49 85.7733 301.978 83.64C301.466 81.464 301.21 78.584 301.21 75C301.21 72.056 301.445 69.5387 301.914 67.448C302.426 65.3573 303.173 63.6507 304.154 62.328C305.135 61.0053 306.351 60.0453 307.802 59.448C309.253 58.8507 310.938 58.552 312.858 58.552C316.527 58.552 319.151 59.768 320.73 62.2C322.351 64.5893 323.162 67.896 323.162 72.12V76.92H306.65ZM312.73 63.096C311.706 63.096 310.831 63.2453 310.106 63.544C309.381 63.8427 308.783 64.3547 308.314 65.08C307.845 65.8053 307.482 66.7867 307.226 68.024C306.97 69.2187 306.799 70.7333 306.714 72.568H317.85V70.84C317.85 68.408 317.466 66.5093 316.698 65.144C315.973 63.7787 314.65 63.096 312.73 63.096ZM346.316 81.72C346.316 85.2613 345.334 87.7787 343.372 89.272C341.452 90.7227 338.849 91.448 335.564 91.448C333.729 91.448 332.172 91.32 330.892 91.064C329.612 90.8507 328.609 90.6373 327.884 90.424V85.752C328.268 85.8373 328.758 85.944 329.356 86.072C329.996 86.1573 330.678 86.264 331.404 86.392C332.129 86.4773 332.876 86.5627 333.644 86.648C334.454 86.7333 335.244 86.776 336.012 86.776C336.865 86.776 337.569 86.648 338.124 86.392C338.721 86.0933 339.19 85.7307 339.532 85.304C339.916 84.8347 340.193 84.3227 340.364 83.768C340.534 83.1707 340.62 82.5947 340.62 82.04C340.62 80.504 340.342 79.3733 339.788 78.648C339.276 77.9227 338.209 77.4107 336.588 77.112C333.302 76.5147 330.977 75.4907 329.612 74.04C328.289 72.5467 327.628 70.6053 327.628 68.216C327.628 66.4667 327.905 64.9947 328.46 63.8C329.014 62.5627 329.761 61.56 330.7 60.792C331.681 60.024 332.812 59.4693 334.092 59.128C335.414 58.744 336.844 58.552 338.38 58.552C340.044 58.552 341.43 58.7013 342.54 59C343.692 59.256 344.588 59.4693 345.228 59.64V64.312C344.118 64.056 343.052 63.8 342.028 63.544C341.004 63.288 339.617 63.16 337.868 63.16C336.886 63.16 336.076 63.3093 335.436 63.608C334.838 63.864 334.369 64.2267 334.028 64.696C333.686 65.1227 333.452 65.6133 333.324 66.168C333.238 66.7227 333.196 67.2987 333.196 67.896C333.196 70.2427 334.561 71.6293 337.292 72.056C340.62 72.6107 342.945 73.656 344.268 75.192C345.633 76.728 346.316 78.904 346.316 81.72ZM369.362 76.92C369.405 79.0107 369.554 80.7173 369.81 82.04C370.109 83.32 370.493 84.3227 370.962 85.048C371.432 85.7733 371.986 86.264 372.626 86.52C373.266 86.7333 373.992 86.84 374.802 86.84C376.594 86.84 378.216 86.7333 379.666 86.52C381.16 86.264 382.397 86.0293 383.378 85.816V90.424C382.354 90.7227 381.053 90.9573 379.474 91.128C377.938 91.3413 376.594 91.448 375.442 91.448C373.608 91.448 371.965 91.256 370.514 90.872C369.106 90.488 367.912 89.72 366.93 88.568C365.949 87.416 365.202 85.7733 364.69 83.64C364.178 81.464 363.922 78.584 363.922 75C363.922 72.056 364.157 69.5387 364.626 67.448C365.138 65.3573 365.885 63.6507 366.866 62.328C367.848 61.0053 369.064 60.0453 370.514 59.448C371.965 58.8507 373.65 58.552 375.57 58.552C379.24 58.552 381.864 59.768 383.442 62.2C385.064 64.5893 385.874 67.896 385.874 72.12V76.92H369.362ZM375.442 63.096C374.418 63.096 373.544 63.2453 372.818 63.544C372.093 63.8427 371.496 64.3547 371.026 65.08C370.557 65.8053 370.194 66.7867 369.938 68.024C369.682 69.2187 369.512 70.7333 369.426 72.568H380.562V70.84C380.562 68.408 380.178 66.5093 379.41 65.144C378.685 63.7787 377.362 63.096 375.442 63.096ZM391.62 91V59H396.1L396.548 61.816C398.511 59.64 400.921 58.552 403.78 58.552C405.785 58.552 407.385 58.936 408.58 59.704C409.775 60.4293 410.713 61.3893 411.396 62.584C413.444 59.896 416.132 58.552 419.46 58.552C422.745 58.552 425.049 59.4693 426.372 61.304C427.737 63.096 428.42 65.9547 428.42 69.88V91H422.98V69.24C422.98 67.192 422.681 65.6773 422.084 64.696C421.529 63.672 420.335 63.16 418.5 63.16C417.647 63.16 416.857 63.3307 416.132 63.672C415.449 64.0133 414.852 64.4613 414.34 65.016C413.828 65.5707 413.423 66.168 413.124 66.808C412.868 67.4053 412.74 68.0027 412.74 68.6V91H407.3V69.24C407.3 67.192 407.001 65.6773 406.404 64.696C405.849 63.672 404.655 63.16 402.82 63.16C401.967 63.16 401.177 63.3307 400.452 63.672C399.769 64.0133 399.172 64.4613 398.66 65.016C398.148 65.5707 397.743 66.168 397.444 66.808C397.188 67.4053 397.06 68.0027 397.06 68.6V91H391.62ZM453.075 76.92C453.118 79.0107 453.267 80.7173 453.523 82.04C453.822 83.32 454.206 84.3227 454.675 85.048C455.144 85.7733 455.699 86.264 456.339 86.52C456.979 86.7333 457.704 86.84 458.515 86.84C460.307 86.84 461.928 86.7333 463.379 86.52C464.872 86.264 466.11 86.0293 467.091 85.816V90.424C466.067 90.7227 464.766 90.9573 463.187 91.128C461.651 91.3413 460.307 91.448 459.155 91.448C457.32 91.448 455.678 91.256 454.227 90.872C452.819 90.488 451.624 89.72 450.643 88.568C449.662 87.416 448.915 85.7733 448.403 83.64C447.891 81.464 447.635 78.584 447.635 75C447.635 72.056 447.87 69.5387 448.339 67.448C448.851 65.3573 449.598 63.6507 450.579 62.328C451.56 61.0053 452.776 60.0453 454.227 59.448C455.678 58.8507 457.363 58.552 459.283 58.552C462.952 58.552 465.576 59.768 467.155 62.2C468.776 64.5893 469.587 67.896 469.587 72.12V76.92H453.075ZM459.155 63.096C458.131 63.096 457.256 63.2453 456.531 63.544C455.806 63.8427 455.208 64.3547 454.739 65.08C454.27 65.8053 453.907 66.7867 453.651 68.024C453.395 69.2187 453.224 70.7333 453.139 72.568H464.275V70.84C464.275 68.408 463.891 66.5093 463.123 65.144C462.398 63.7787 461.075 63.096 459.155 63.096ZM491.908 101.88V88.824C490.97 89.6773 489.924 90.3387 488.772 90.808C487.62 91.2347 486.298 91.448 484.804 91.448C482.756 91.448 481.071 91.128 479.748 90.488C478.426 89.848 477.359 88.9093 476.548 87.672C475.738 86.4347 475.162 84.8773 474.82 83C474.522 81.08 474.372 78.8827 474.372 76.408C474.372 70.0933 475.46 65.5493 477.636 62.776C479.855 59.96 483.418 58.552 488.324 58.552C489.476 58.552 490.479 58.5733 491.332 58.616C492.186 58.6587 492.954 58.7227 493.636 58.808C494.362 58.8933 495.002 58.9787 495.556 59.064C496.154 59.1493 496.751 59.2347 497.348 59.32V101.88H491.908ZM485.828 86.84C486.81 86.84 487.684 86.6693 488.452 86.328C489.22 85.9867 489.86 85.5387 490.372 84.984C490.884 84.4293 491.268 83.832 491.524 83.192C491.78 82.552 491.908 81.9547 491.908 81.4V63.416C491.439 63.3307 490.863 63.2667 490.18 63.224C489.498 63.1813 488.666 63.16 487.684 63.16C486.148 63.16 484.89 63.48 483.908 64.12C482.927 64.7173 482.138 65.6133 481.54 66.808C480.943 67.96 480.516 69.4107 480.26 71.16C480.047 72.8667 479.94 74.8293 479.94 77.048C479.94 78.968 480.047 80.568 480.26 81.848C480.516 83.0853 480.879 84.088 481.348 84.856C481.818 85.5813 482.415 86.0933 483.14 86.392C483.908 86.6907 484.804 86.84 485.828 86.84ZM521.087 91L520.639 88.376C519.743 89.3573 518.697 90.1253 517.503 90.68C516.308 91.192 514.9 91.448 513.279 91.448C511.487 91.448 509.993 91.2133 508.799 90.744C507.647 90.2747 506.708 89.5707 505.983 88.632C505.3 87.6507 504.809 86.4347 504.511 84.984C504.212 83.5333 504.063 81.8267 504.063 79.864V59H509.503V80.504C509.503 81.528 509.545 82.424 509.631 83.192C509.759 83.96 509.993 84.6213 510.335 85.176C510.676 85.7307 511.145 86.1573 511.743 86.456C512.34 86.712 513.129 86.84 514.111 86.84C515.007 86.84 515.817 86.6693 516.543 86.328C517.268 85.9867 517.887 85.56 518.399 85.048C518.911 84.536 519.316 83.9813 519.615 83.384C519.913 82.744 520.084 82.1467 520.127 81.592V59H525.567V91H521.087ZM532.3 51.96V46.2H538.38V51.96H532.3ZM532.62 91V59H538.06V91H532.62ZM545.107 101.88V59H549.587L550.099 61.752C552.147 59.6187 554.665 58.552 557.651 58.552C561.406 58.552 564.03 59.768 565.523 62.2C567.017 64.5893 567.763 68.1733 567.763 72.952C567.763 76.4507 567.529 79.3947 567.059 81.784C566.59 84.1307 565.822 86.0293 564.755 87.48C563.689 88.888 562.281 89.912 560.531 90.552C558.825 91.1493 556.691 91.448 554.131 91.448C553.406 91.448 552.745 91.4267 552.147 91.384C551.55 91.3413 551.017 91.2773 550.547 91.192V101.88H545.107ZM556.627 63.16C555.731 63.16 554.899 63.3307 554.131 63.672C553.406 64.0133 552.766 64.4613 552.211 65.016C551.699 65.5707 551.294 66.168 550.995 66.808C550.697 67.4053 550.547 68.0027 550.547 68.6V86.584C551.017 86.6693 551.593 86.7333 552.275 86.776C552.958 86.8187 553.79 86.84 554.771 86.84C556.307 86.84 557.545 86.5627 558.483 86.008C559.465 85.4533 560.211 84.6213 560.723 83.512C561.278 82.4027 561.662 81.0373 561.875 79.416C562.089 77.752 562.195 75.8107 562.195 73.592C562.195 71.544 562.089 69.8587 561.875 68.536C561.705 67.2133 561.385 66.1467 560.915 65.336C560.489 64.5253 559.913 63.9707 559.187 63.672C558.505 63.3307 557.651 63.16 556.627 63.16ZM594.709 91C594.41 91 594.026 90.9573 593.557 90.872C593.13 90.7867 592.682 90.6373 592.213 90.424C591.744 90.2107 591.296 89.8907 590.869 89.464C590.485 89.0373 590.165 88.504 589.909 87.864C589.098 89.016 588.032 89.912 586.709 90.552C585.386 91.1493 583.637 91.448 581.461 91.448C580.309 91.448 579.157 91.32 578.005 91.064C576.853 90.8507 575.829 90.4027 574.933 89.72C574.037 88.9947 573.312 88.0133 572.757 86.776C572.202 85.5387 571.925 83.9387 571.925 81.976C571.925 78.52 572.928 75.8747 574.933 74.04C576.938 72.2053 579.733 71.288 583.317 71.288H588.373V67.832C588.373 66.4667 587.968 65.3573 587.157 64.504C586.389 63.608 585.194 63.16 583.573 63.16C581.738 63.16 580.138 63.2667 578.773 63.48C577.408 63.6933 575.914 64.0347 574.293 64.504V59.832C575.488 59.4907 576.832 59.192 578.325 58.936C579.818 58.68 581.354 58.552 582.933 58.552C585.024 58.552 586.752 58.7653 588.117 59.192C589.525 59.576 590.634 60.216 591.445 61.112C592.298 61.9653 592.896 63.0533 593.237 64.376C593.621 65.6987 593.813 67.2773 593.813 69.112V84.472C593.813 85.112 594.026 85.624 594.453 86.008C594.88 86.3493 595.605 86.52 596.629 86.52V91H594.709ZM582.741 86.84C583.85 86.84 584.768 86.6693 585.493 86.328C586.218 85.9867 586.794 85.5813 587.221 85.112C587.648 84.6 587.946 84.088 588.117 83.576C588.288 83.064 588.373 82.6587 588.373 82.36V75.64H582.997C582.314 75.64 581.632 75.7467 580.949 75.96C580.309 76.1733 579.733 76.536 579.221 77.048C578.709 77.5173 578.282 78.136 577.941 78.904C577.642 79.6293 577.493 80.5253 577.493 81.592C577.493 83.5973 577.941 84.984 578.837 85.752C579.733 86.4773 581.034 86.84 582.741 86.84ZM601.457 91V59H605.937L606.385 61.816C608.348 59.64 610.759 58.552 613.617 58.552C615.623 58.552 617.223 58.936 618.417 59.704C619.612 60.4293 620.551 61.3893 621.233 62.584C623.281 59.896 625.969 58.552 629.297 58.552C632.583 58.552 634.887 59.4693 636.209 61.304C637.575 63.096 638.257 65.9547 638.257 69.88V91H632.817V69.24C632.817 67.192 632.519 65.6773 631.921 64.696C631.367 63.672 630.172 63.16 628.337 63.16C627.484 63.16 626.695 63.3307 625.969 63.672C625.287 64.0133 624.689 64.4613 624.177 65.016C623.665 65.5707 623.26 66.168 622.961 66.808C622.705 67.4053 622.577 68.0027 622.577 68.6V91H617.137V69.24C617.137 67.192 616.839 65.6773 616.241 64.696C615.687 63.672 614.492 63.16 612.657 63.16C611.804 63.16 611.015 63.3307 610.289 63.672C609.607 64.0133 609.009 64.4613 608.497 65.016C607.985 65.5707 607.58 66.168 607.281 66.808C607.025 67.4053 606.897 68.0027 606.897 68.6V91H601.457ZM649.488 76.92C649.53 79.0107 649.68 80.7173 649.936 82.04C650.234 83.32 650.618 84.3227 651.088 85.048C651.557 85.7733 652.112 86.264 652.752 86.52C653.392 86.7333 654.117 86.84 654.928 86.84C656.72 86.84 658.341 86.7333 659.792 86.52C661.285 86.264 662.522 86.0293 663.504 85.816V90.424C662.48 90.7227 661.178 90.9573 659.6 91.128C658.064 91.3413 656.72 91.448 655.568 91.448C653.733 91.448 652.09 91.256 650.64 90.872C649.232 90.488 648.037 89.72 647.056 88.568C646.074 87.416 645.328 85.7733 644.816 83.64C644.304 81.464 644.048 78.584 644.048 75C644.048 72.056 644.282 69.5387 644.752 67.448C645.264 65.3573 646.01 63.6507 646.992 62.328C647.973 61.0053 649.189 60.0453 650.64 59.448C652.09 58.8507 653.776 58.552 655.696 58.552C659.365 58.552 661.989 59.768 663.568 62.2C665.189 64.5893 666 67.896 666 72.12V76.92H649.488ZM655.568 63.096C654.544 63.096 653.669 63.2453 652.944 63.544C652.218 63.8427 651.621 64.3547 651.152 65.08C650.682 65.8053 650.32 66.7867 650.064 68.024C649.808 69.2187 649.637 70.7333 649.552 72.568H660.688V70.84C660.688 68.408 660.304 66.5093 659.536 65.144C658.81 63.7787 657.488 63.096 655.568 63.096ZM671.745 91V59H676.225L676.673 61.88C678.764 59.6613 681.388 58.552 684.545 58.552C686.38 58.552 687.916 58.7867 689.153 59.256C690.39 59.6827 691.372 60.3653 692.097 61.304C692.865 62.2 693.398 63.3733 693.697 64.824C694.038 66.232 694.209 67.9173 694.209 69.88V91H688.769V69.24C688.769 67.2347 688.428 65.72 687.745 64.696C687.105 63.672 685.718 63.16 683.585 63.16C682.689 63.16 681.836 63.3307 681.025 63.672C680.257 64.0133 679.574 64.4613 678.977 65.016C678.422 65.5707 677.974 66.168 677.633 66.808C677.334 67.4053 677.185 68.0027 677.185 68.6V91H671.745ZM707 63.8V83.32C707 83.6187 707.043 83.9813 707.128 84.408C707.213 84.792 707.363 85.176 707.576 85.56C707.832 85.9013 708.152 86.2 708.536 86.456C708.963 86.712 709.517 86.84 710.2 86.84C711.181 86.84 712.013 86.776 712.696 86.648C713.379 86.4773 713.955 86.328 714.424 86.2V90.68C713.997 90.808 713.251 90.9573 712.184 91.128C711.16 91.3413 710.072 91.448 708.92 91.448C707.64 91.448 706.531 91.2347 705.592 90.808C704.653 90.3813 703.885 89.784 703.288 89.016C702.691 88.248 702.243 87.352 701.944 86.328C701.688 85.304 701.56 84.1947 701.56 83V63.8H697.4V59H701.56V51.32H707V59H714.424V63.8H707ZM741.642 74.36C741.642 77.7307 741.386 80.5253 740.874 82.744C740.362 84.92 739.594 86.6693 738.57 87.992C737.546 89.272 736.266 90.168 734.73 90.68C733.237 91.192 731.488 91.448 729.482 91.448C727.52 91.448 725.77 91.192 724.234 90.68C722.741 90.168 721.482 89.272 720.458 87.992C719.434 86.6693 718.645 84.92 718.09 82.744C717.578 80.5253 717.322 77.7307 717.322 74.36C717.322 68.8987 718.304 64.9093 720.266 62.392C722.229 59.832 725.301 58.552 729.482 58.552C733.664 58.552 736.736 59.832 738.698 62.392C740.661 64.9093 741.642 68.8987 741.642 74.36ZM736.074 75.32C736.074 73.0587 735.968 71.1387 735.754 69.56C735.541 67.9813 735.178 66.7227 734.666 65.784C734.197 64.8027 733.536 64.0987 732.682 63.672C731.829 63.2453 730.762 63.032 729.482 63.032C728.202 63.032 727.136 63.2453 726.282 63.672C725.429 64.0987 724.746 64.8027 724.234 65.784C723.765 66.7227 723.424 67.9813 723.21 69.56C722.997 71.1387 722.89 73.0587 722.89 75.32C722.89 79.5013 723.381 82.488 724.362 84.28C725.344 86.072 727.05 86.968 729.482 86.968C731.914 86.968 733.621 86.072 734.602 84.28C735.584 82.488 736.074 79.5013 736.074 75.32ZM765.116 81.72C765.116 85.2613 764.134 87.7787 762.172 89.272C760.252 90.7227 757.649 91.448 754.364 91.448C752.529 91.448 750.972 91.32 749.692 91.064C748.412 90.8507 747.409 90.6373 746.684 90.424V85.752C747.068 85.8373 747.558 85.944 748.156 86.072C748.796 86.1573 749.478 86.264 750.204 86.392C750.929 86.4773 751.676 86.5627 752.444 86.648C753.254 86.7333 754.044 86.776 754.812 86.776C755.665 86.776 756.369 86.648 756.924 86.392C757.521 86.0933 757.99 85.7307 758.332 85.304C758.716 84.8347 758.993 84.3227 759.164 83.768C759.334 83.1707 759.42 82.5947 759.42 82.04C759.42 80.504 759.142 79.3733 758.588 78.648C758.076 77.9227 757.009 77.4107 755.388 77.112C752.102 76.5147 749.777 75.4907 748.412 74.04C747.089 72.5467 746.428 70.6053 746.428 68.216C746.428 66.4667 746.705 64.9947 747.26 63.8C747.814 62.5627 748.561 61.56 749.5 60.792C750.481 60.024 751.612 59.4693 752.892 59.128C754.214 58.744 755.644 58.552 757.18 58.552C758.844 58.552 760.23 58.7013 761.34 59C762.492 59.256 763.388 59.4693 764.028 59.64V64.312C762.918 64.056 761.852 63.8 760.828 63.544C759.804 63.288 758.417 63.16 756.668 63.16C755.686 63.16 754.876 63.3093 754.236 63.608C753.638 63.864 753.169 64.2267 752.828 64.696C752.486 65.1227 752.252 65.6133 752.124 66.168C752.038 66.7227 751.996 67.2987 751.996 67.896C751.996 70.2427 753.361 71.6293 756.092 72.056C759.42 72.6107 761.745 73.656 763.068 75.192C764.433 76.728 765.116 78.904 765.116 81.72Z" fill="white"/>
<path d="M127.32 48.04C127.32 42.04 126.48 37.52 124.8 34.48C123.2 31.36 120.24 29.8 115.92 29.8C112.56 29.8 109.84 29.92 107.76 30.16C106.56 30.32 105.52 30.44 104.64 30.52V65.56H115.92C117.6 65.56 119.12 65.28 120.48 64.72C121.92 64.08 123.12 63.08 124.08 61.72C125.12 60.36 125.92 58.56 126.48 56.32C127.04 54.08 127.32 51.32 127.32 48.04ZM138 47.2C138 51.76 137.56 55.76 136.68 59.2C135.88 62.56 134.56 65.36 132.72 67.6C130.88 69.84 128.48 71.52 125.52 72.64C122.56 73.76 118.96 74.32 114.72 74.32H104.64V106H94.2V22C96.2 21.84 98.32 21.68 100.56 21.52C102.48 21.36 104.64 21.28 107.04 21.28C109.52 21.2 112 21.16 114.48 21.16C119.04 21.16 122.84 21.84 125.88 23.2C128.92 24.48 131.32 26.32 133.08 28.72C134.92 31.04 136.2 33.8 136.92 37C137.64 40.12 138 43.52 138 47.2Z" fill="#3C434A"/>
<path d="M38.4 75.88C38.4 82.36 38 87.64 37.2 91.72C36.4 95.72 35.12 98.84 33.36 101.08C31.68 103.32 29.48 104.84 26.76 105.64C24.12 106.44 20.88 106.84 17.04 106.84C16.32 106.84 15.44 106.8 14.4 106.72C13.36 106.64 12.24 106.52 11.04 106.36C9.84 106.28 8.64 106.16 7.44 106C6.24 105.92 5.16 105.8 4.2 105.64V96.76C5.08 96.92 6.12 97.08 7.32 97.24C8.52 97.32 9.68 97.44 10.8 97.6C12 97.68 13.08 97.76 14.04 97.84C15.08 97.84 15.84 97.84 16.32 97.84C18.48 97.84 20.28 97.6 21.72 97.12C23.24 96.64 24.44 95.68 25.32 94.24C26.28 92.72 26.96 90.56 27.36 87.76C27.76 84.96 27.96 81.28 27.96 76.72V30.76H8.64V22H38.4V75.88Z" fill="#3C434A"/>
</svg>
