<svg width="288" height="52" viewBox="0 0 288 52" fill="none" xmlns="http://www.w3.org/2000/svg">
<path d="M64.144 27.224C64.144 28.216 64.032 29.032 63.808 29.672C63.584 30.312 63.264 30.816 62.848 31.184C62.432 31.552 61.928 31.808 61.336 31.952C60.76 32.096 60.112 32.168 59.392 32.168C59.008 32.168 58.552 32.136 58.024 32.072C57.496 32.008 57.024 31.92 56.608 31.808V30.056C56.976 30.152 57.408 30.24 57.904 30.32C58.4 30.384 58.976 30.416 59.632 30.416C60.464 30.416 61.064 30.176 61.432 29.696C61.816 29.216 62.008 28.472 62.008 27.464C62.008 26.888 61.968 26.408 61.888 26.024C61.808 25.624 61.688 25.304 61.528 25.064C61.368 24.808 61.16 24.616 60.904 24.488C60.664 24.36 60.384 24.264 60.064 24.2C59.392 24.056 58.824 23.872 58.36 23.648C57.896 23.424 57.52 23.136 57.232 22.784C56.944 22.432 56.728 22 56.584 21.488C56.456 20.976 56.392 20.368 56.392 19.664C56.392 18.8 56.504 18.08 56.728 17.504C56.968 16.912 57.296 16.432 57.712 16.064C58.144 15.696 58.648 15.432 59.224 15.272C59.8 15.112 60.432 15.032 61.12 15.032C61.52 15.032 61.952 15.072 62.416 15.152C62.896 15.216 63.312 15.296 63.664 15.392V17.144C63.248 17.048 62.784 16.968 62.272 16.904C61.76 16.824 61.296 16.784 60.88 16.784C60.576 16.784 60.28 16.832 59.992 16.928C59.72 17.024 59.472 17.176 59.248 17.384C59.04 17.592 58.864 17.864 58.72 18.2C58.592 18.52 58.528 18.92 58.528 19.4C58.528 19.88 58.552 20.288 58.6 20.624C58.648 20.944 58.736 21.208 58.864 21.416C59.008 21.624 59.2 21.792 59.44 21.92C59.68 22.032 59.992 22.128 60.376 22.208C60.952 22.32 61.472 22.48 61.936 22.688C62.4 22.896 62.792 23.192 63.112 23.576C63.448 23.944 63.704 24.424 63.88 25.016C64.056 25.608 64.144 26.344 64.144 27.224ZM74.8863 25.76C74.8863 27.024 74.7903 28.072 74.5983 28.904C74.4063 29.72 74.1183 30.376 73.7343 30.872C73.3503 31.352 72.8703 31.688 72.2943 31.88C71.7343 32.072 71.0783 32.168 70.3263 32.168C69.5903 32.168 68.9343 32.072 68.3583 31.88C67.7983 31.688 67.3263 31.352 66.9423 30.872C66.5583 30.376 66.2623 29.72 66.0543 28.904C65.8623 28.072 65.7663 27.024 65.7663 25.76C65.7663 23.712 66.1343 22.216 66.8703 21.272C67.6063 20.312 68.7583 19.832 70.3263 19.832C71.8943 19.832 73.0463 20.312 73.7823 21.272C74.5183 22.216 74.8863 23.712 74.8863 25.76ZM72.7983 26.12C72.7983 25.272 72.7583 24.552 72.6783 23.96C72.5983 23.368 72.4623 22.896 72.2703 22.544C72.0943 22.176 71.8463 21.912 71.5263 21.752C71.2063 21.592 70.8063 21.512 70.3263 21.512C69.8463 21.512 69.4463 21.592 69.1263 21.752C68.8063 21.912 68.5503 22.176 68.3583 22.544C68.1823 22.896 68.0543 23.368 67.9743 23.96C67.8943 24.552 67.8543 25.272 67.8543 26.12C67.8543 27.688 68.0383 28.808 68.4063 29.48C68.7743 30.152 69.4143 30.488 70.3263 30.488C71.2383 30.488 71.8783 30.152 72.2463 29.48C72.6143 28.808 72.7983 27.688 72.7983 26.12ZM80.6406 31.88C80.4646 31.912 80.2566 31.952 80.0166 32C79.7926 32.048 79.5206 32.072 79.2006 32.072C78.9606 32.072 78.7206 32.032 78.4806 31.952C78.2406 31.872 78.0246 31.728 77.8326 31.52C77.6406 31.312 77.4806 31.032 77.3526 30.68C77.2246 30.312 77.1606 29.856 77.1606 29.312V15.2H79.2006V29.192C79.2006 29.608 79.2486 29.904 79.3446 30.08C79.4566 30.24 79.6726 30.32 79.9926 30.32C80.1206 30.32 80.2406 30.304 80.3526 30.272C80.4806 30.24 80.5766 30.216 80.6406 30.2V31.88ZM88.5762 32L88.4082 31.016C88.0722 31.384 87.6802 31.672 87.2322 31.88C86.7842 32.072 86.2562 32.168 85.6482 32.168C84.9762 32.168 84.4162 32.08 83.9682 31.904C83.5362 31.728 83.1842 31.464 82.9122 31.112C82.6562 30.744 82.4722 30.288 82.3602 29.744C82.2482 29.2 82.1922 28.56 82.1922 27.824V20H84.2322V28.064C84.2322 28.448 84.2482 28.784 84.2802 29.072C84.3282 29.36 84.4162 29.608 84.5442 29.816C84.6722 30.024 84.8482 30.184 85.0722 30.296C85.2962 30.392 85.5922 30.44 85.9602 30.44C86.2962 30.44 86.6002 30.376 86.8722 30.248C87.1442 30.12 87.3762 29.96 87.5682 29.768C87.7602 29.576 87.9122 29.368 88.0242 29.144C88.1362 28.904 88.2002 28.68 88.2162 28.472V20H90.2562V32H88.5762ZM94.9173 35.144C95.1413 35.192 95.3653 35.224 95.5893 35.24C95.8293 35.272 96.0373 35.288 96.2133 35.288C96.5333 35.288 96.7733 35.24 96.9333 35.144C97.1093 35.048 97.1973 34.848 97.1973 34.544C97.1973 34.432 97.1653 34.328 97.1013 34.232C97.0533 34.136 96.9573 34.056 96.8133 33.992C96.6693 33.944 96.4693 33.904 96.2133 33.872C95.9733 33.84 95.6533 33.824 95.2533 33.824L95.5173 32.072C95.0213 31.992 94.5893 31.84 94.2213 31.616C93.8533 31.376 93.5413 31.016 93.2853 30.536C93.0453 30.056 92.8613 29.432 92.7333 28.664C92.6053 27.88 92.5413 26.912 92.5413 25.76C92.5413 24.688 92.6213 23.776 92.7813 23.024C92.9573 22.272 93.2133 21.664 93.5493 21.2C93.8853 20.72 94.3173 20.376 94.8453 20.168C95.3733 19.944 95.9973 19.832 96.7173 19.832C97.1173 19.832 97.5653 19.872 98.0613 19.952C98.5733 20.032 99.0053 20.112 99.3573 20.192V21.968C98.9093 21.872 98.4853 21.792 98.0853 21.728C97.6853 21.664 97.1813 21.632 96.5733 21.632C96.2213 21.632 95.9253 21.704 95.6853 21.848C95.4453 21.992 95.2453 22.248 95.0853 22.616C94.9253 22.968 94.8053 23.44 94.7253 24.032C94.6613 24.608 94.6293 25.344 94.6293 26.24C94.6293 27.136 94.6693 27.856 94.7493 28.4C94.8453 28.944 94.9733 29.36 95.1333 29.648C95.3093 29.936 95.5173 30.128 95.7573 30.224C95.9973 30.32 96.2693 30.368 96.5733 30.368C97.2293 30.368 97.7653 30.328 98.1813 30.248C98.6133 30.168 99.0053 30.088 99.3573 30.008V31.784C99.0213 31.88 98.6533 31.96 98.2533 32.024C97.8693 32.088 97.4853 32.136 97.1013 32.168L97.0293 32.648C97.7493 32.728 98.2613 32.92 98.5653 33.224C98.8693 33.544 99.0213 34.008 99.0213 34.616C99.0213 35.384 98.7813 35.936 98.3013 36.272C97.8373 36.624 97.2133 36.8 96.4293 36.8C96.1413 36.8 95.8773 36.784 95.6373 36.752C95.4133 36.72 95.1733 36.68 94.9173 36.632V35.144ZM110.164 25.76C110.164 27.024 110.068 28.072 109.876 28.904C109.684 29.72 109.396 30.376 109.012 30.872C108.628 31.352 108.148 31.688 107.572 31.88C107.012 32.072 106.356 32.168 105.604 32.168C104.868 32.168 104.212 32.072 103.636 31.88C103.076 31.688 102.604 31.352 102.22 30.872C101.836 30.376 101.54 29.72 101.332 28.904C101.14 28.072 101.044 27.024 101.044 25.76C101.044 23.712 101.412 22.216 102.148 21.272C102.884 20.312 104.036 19.832 105.604 19.832C107.172 19.832 108.324 20.312 109.06 21.272C109.796 22.216 110.164 23.712 110.164 25.76ZM108.076 26.12C108.076 25.272 108.036 24.552 107.956 23.96C107.876 23.368 107.74 22.896 107.548 22.544C107.372 22.176 107.124 21.912 106.804 21.752C106.484 21.592 106.084 21.512 105.604 21.512C105.124 21.512 104.724 21.592 104.404 21.752C104.084 21.912 103.828 22.176 103.636 22.544C103.46 22.896 103.332 23.368 103.252 23.96C103.172 24.552 103.132 25.272 103.132 26.12C103.132 27.688 103.316 28.808 103.684 29.48C104.052 30.152 104.692 30.488 105.604 30.488C106.516 30.488 107.156 30.152 107.524 29.48C107.892 28.808 108.076 27.688 108.076 26.12ZM102.364 15.992C102.732 15.688 103.084 15.48 103.42 15.368C103.772 15.256 104.108 15.2 104.428 15.2C104.716 15.2 104.972 15.248 105.196 15.344C105.436 15.44 105.66 15.552 105.868 15.68C106.076 15.792 106.284 15.896 106.492 15.992C106.7 16.088 106.924 16.136 107.164 16.136C107.58 16.136 107.924 16.064 108.196 15.92C108.468 15.76 108.764 15.544 109.084 15.272V17.024C108.764 17.328 108.444 17.536 108.124 17.648C107.804 17.76 107.436 17.816 107.02 17.816C106.716 17.816 106.452 17.768 106.228 17.672C106.004 17.576 105.788 17.472 105.58 17.36C105.388 17.232 105.188 17.12 104.98 17.024C104.772 16.928 104.54 16.88 104.284 16.88C103.868 16.88 103.508 16.968 103.204 17.144C102.9 17.32 102.62 17.52 102.364 17.744V15.992ZM114.119 26.72C114.135 27.504 114.191 28.144 114.287 28.64C114.399 29.12 114.543 29.496 114.719 29.768C114.895 30.04 115.103 30.224 115.343 30.32C115.583 30.4 115.855 30.44 116.159 30.44C116.831 30.44 117.439 30.4 117.983 30.32C118.543 30.224 119.007 30.136 119.375 30.056V31.784C118.991 31.896 118.503 31.984 117.911 32.048C117.335 32.128 116.831 32.168 116.399 32.168C115.711 32.168 115.095 32.096 114.551 31.952C114.023 31.808 113.575 31.52 113.207 31.088C112.839 30.656 112.559 30.04 112.367 29.24C112.175 28.424 112.079 27.344 112.079 26C112.079 24.896 112.167 23.952 112.343 23.168C112.535 22.384 112.815 21.744 113.183 21.248C113.551 20.752 114.007 20.392 114.551 20.168C115.095 19.944 115.727 19.832 116.447 19.832C117.823 19.832 118.807 20.288 119.399 21.2C120.007 22.096 120.311 23.336 120.311 24.92V26.72H114.119ZM116.399 21.536C116.015 21.536 115.687 21.592 115.415 21.704C115.143 21.816 114.919 22.008 114.743 22.28C114.567 22.552 114.431 22.92 114.335 23.384C114.239 23.832 114.175 24.4 114.143 25.088H118.319V24.44C118.319 23.528 118.175 22.816 117.887 22.304C117.615 21.792 117.119 21.536 116.399 21.536ZM128.993 28.52C128.993 29.848 128.625 30.792 127.889 31.352C127.169 31.896 126.193 32.168 124.961 32.168C124.273 32.168 123.689 32.12 123.209 32.024C122.729 31.944 122.353 31.864 122.081 31.784V30.032C122.225 30.064 122.409 30.104 122.633 30.152C122.873 30.184 123.129 30.224 123.401 30.272C123.673 30.304 123.953 30.336 124.241 30.368C124.545 30.4 124.841 30.416 125.129 30.416C125.449 30.416 125.713 30.368 125.921 30.272C126.145 30.16 126.321 30.024 126.449 29.864C126.593 29.688 126.697 29.496 126.761 29.288C126.825 29.064 126.857 28.848 126.857 28.64C126.857 28.064 126.753 27.64 126.545 27.368C126.353 27.096 125.953 26.904 125.345 26.792C124.113 26.568 123.241 26.184 122.729 25.64C122.233 25.08 121.985 24.352 121.985 23.456C121.985 22.8 122.089 22.248 122.297 21.8C122.505 21.336 122.785 20.96 123.137 20.672C123.505 20.384 123.929 20.176 124.409 20.048C124.905 19.904 125.441 19.832 126.017 19.832C126.641 19.832 127.161 19.888 127.577 20C128.009 20.096 128.345 20.176 128.585 20.24V21.992C128.169 21.896 127.769 21.8 127.385 21.704C127.001 21.608 126.481 21.56 125.825 21.56C125.457 21.56 125.153 21.616 124.913 21.728C124.689 21.824 124.513 21.96 124.385 22.136C124.257 22.296 124.169 22.48 124.121 22.688C124.089 22.896 124.073 23.112 124.073 23.336C124.073 24.216 124.585 24.736 125.609 24.896C126.857 25.104 127.729 25.496 128.225 26.072C128.737 26.648 128.993 27.464 128.993 28.52ZM137.636 26.72C137.652 27.504 137.708 28.144 137.804 28.64C137.916 29.12 138.06 29.496 138.236 29.768C138.412 30.04 138.62 30.224 138.86 30.32C139.1 30.4 139.372 30.44 139.676 30.44C140.348 30.44 140.956 30.4 141.5 30.32C142.06 30.224 142.524 30.136 142.892 30.056V31.784C142.508 31.896 142.02 31.984 141.428 32.048C140.852 32.128 140.348 32.168 139.916 32.168C139.228 32.168 138.612 32.096 138.068 31.952C137.54 31.808 137.092 31.52 136.724 31.088C136.356 30.656 136.076 30.04 135.884 29.24C135.692 28.424 135.596 27.344 135.596 26C135.596 24.896 135.684 23.952 135.86 23.168C136.052 22.384 136.332 21.744 136.7 21.248C137.068 20.752 137.524 20.392 138.068 20.168C138.612 19.944 139.244 19.832 139.964 19.832C141.34 19.832 142.324 20.288 142.916 21.2C143.524 22.096 143.828 23.336 143.828 24.92V26.72H137.636ZM139.916 21.536C139.532 21.536 139.204 21.592 138.932 21.704C138.66 21.816 138.436 22.008 138.26 22.28C138.084 22.552 137.948 22.92 137.852 23.384C137.756 23.832 137.692 24.4 137.66 25.088H141.836V24.44C141.836 23.528 141.692 22.816 141.404 22.304C141.132 21.792 140.636 21.536 139.916 21.536ZM145.983 32V20H147.663L147.831 21.056C148.567 20.24 149.471 19.832 150.543 19.832C151.295 19.832 151.895 19.976 152.343 20.264C152.791 20.536 153.143 20.896 153.399 21.344C154.167 20.336 155.175 19.832 156.423 19.832C157.655 19.832 158.519 20.176 159.015 20.864C159.527 21.536 159.783 22.608 159.783 24.08V32H157.743V23.84C157.743 23.072 157.631 22.504 157.407 22.136C157.199 21.752 156.751 21.56 156.062 21.56C155.743 21.56 155.447 21.624 155.175 21.752C154.919 21.88 154.695 22.048 154.503 22.256C154.311 22.464 154.159 22.688 154.047 22.928C153.951 23.152 153.903 23.376 153.903 23.6V32H151.863V23.84C151.863 23.072 151.751 22.504 151.527 22.136C151.319 21.752 150.871 21.56 150.183 21.56C149.863 21.56 149.567 21.624 149.295 21.752C149.039 21.88 148.815 22.048 148.623 22.256C148.431 22.464 148.279 22.688 148.167 22.928C148.071 23.152 148.023 23.376 148.023 23.6V32H145.983ZM169.028 26.72C169.044 27.504 169.1 28.144 169.196 28.64C169.308 29.12 169.452 29.496 169.628 29.768C169.804 30.04 170.012 30.224 170.252 30.32C170.492 30.4 170.764 30.44 171.068 30.44C171.74 30.44 172.348 30.4 172.892 30.32C173.452 30.224 173.916 30.136 174.284 30.056V31.784C173.9 31.896 173.412 31.984 172.82 32.048C172.244 32.128 171.74 32.168 171.308 32.168C170.62 32.168 170.004 32.096 169.46 31.952C168.932 31.808 168.484 31.52 168.116 31.088C167.748 30.656 167.468 30.04 167.276 29.24C167.084 28.424 166.988 27.344 166.988 26C166.988 24.896 167.076 23.952 167.252 23.168C167.444 22.384 167.724 21.744 168.092 21.248C168.46 20.752 168.916 20.392 169.46 20.168C170.004 19.944 170.636 19.832 171.356 19.832C172.732 19.832 173.716 20.288 174.308 21.2C174.916 22.096 175.22 23.336 175.22 24.92V26.72H169.028ZM171.308 21.536C170.924 21.536 170.596 21.592 170.324 21.704C170.052 21.816 169.828 22.008 169.652 22.28C169.476 22.552 169.34 22.92 169.244 23.384C169.148 23.832 169.084 24.4 169.052 25.088H173.228V24.44C173.228 23.528 173.084 22.816 172.796 22.304C172.524 21.792 172.028 21.536 171.308 21.536ZM183.591 36.08V31.184C183.239 31.504 182.847 31.752 182.415 31.928C181.983 32.088 181.487 32.168 180.927 32.168C180.159 32.168 179.527 32.048 179.031 31.808C178.535 31.568 178.135 31.216 177.831 30.752C177.527 30.288 177.311 29.704 177.183 29C177.071 28.28 177.015 27.456 177.015 26.528C177.015 24.16 177.423 22.456 178.239 21.416C179.071 20.36 180.407 19.832 182.247 19.832C182.679 19.832 183.055 19.84 183.375 19.856C183.695 19.872 183.983 19.896 184.239 19.928C184.511 19.96 184.751 19.992 184.959 20.024C185.183 20.056 185.407 20.088 185.631 20.12V36.08H183.591ZM181.311 30.44C181.679 30.44 182.007 30.376 182.295 30.248C182.583 30.12 182.823 29.952 183.015 29.744C183.207 29.536 183.351 29.312 183.447 29.072C183.543 28.832 183.591 28.608 183.591 28.4V21.656C183.415 21.624 183.199 21.6 182.943 21.584C182.687 21.568 182.375 21.56 182.007 21.56C181.431 21.56 180.959 21.68 180.591 21.92C180.223 22.144 179.927 22.48 179.703 22.928C179.479 23.36 179.319 23.904 179.223 24.56C179.143 25.2 179.103 25.936 179.103 26.768C179.103 27.488 179.143 28.088 179.223 28.568C179.319 29.032 179.455 29.408 179.631 29.696C179.807 29.968 180.031 30.16 180.303 30.272C180.591 30.384 180.927 30.44 181.311 30.44ZM194.532 32L194.364 31.016C194.028 31.384 193.636 31.672 193.188 31.88C192.74 32.072 192.212 32.168 191.604 32.168C190.932 32.168 190.372 32.08 189.924 31.904C189.492 31.728 189.14 31.464 188.868 31.112C188.612 30.744 188.428 30.288 188.316 29.744C188.204 29.2 188.148 28.56 188.148 27.824V20H190.188V28.064C190.188 28.448 190.204 28.784 190.236 29.072C190.284 29.36 190.372 29.608 190.5 29.816C190.628 30.024 190.804 30.184 191.028 30.296C191.252 30.392 191.548 30.44 191.916 30.44C192.252 30.44 192.556 30.376 192.828 30.248C193.1 30.12 193.332 29.96 193.524 29.768C193.716 29.576 193.868 29.368 193.98 29.144C194.092 28.904 194.156 28.68 194.172 28.472V20H196.212V32H194.532ZM198.738 17.36V15.2H201.018V17.36H198.738ZM198.858 32V20H200.898V32H198.858ZM203.54 36.08V20H205.22L205.412 21.032C206.18 20.232 207.124 19.832 208.244 19.832C209.652 19.832 210.636 20.288 211.196 21.2C211.756 22.096 212.036 23.44 212.036 25.232C212.036 26.544 211.948 27.648 211.772 28.544C211.596 29.424 211.308 30.136 210.908 30.68C210.508 31.208 209.98 31.592 209.324 31.832C208.684 32.056 207.884 32.168 206.924 32.168C206.652 32.168 206.404 32.16 206.18 32.144C205.956 32.128 205.756 32.104 205.58 32.072V36.08H203.54ZM207.86 21.56C207.524 21.56 207.212 21.624 206.924 21.752C206.652 21.88 206.412 22.048 206.204 22.256C206.012 22.464 205.86 22.688 205.748 22.928C205.636 23.152 205.58 23.376 205.58 23.6V30.344C205.756 30.376 205.972 30.4 206.228 30.416C206.484 30.432 206.796 30.44 207.164 30.44C207.74 30.44 208.204 30.336 208.556 30.128C208.924 29.92 209.204 29.608 209.396 29.192C209.604 28.776 209.748 28.264 209.828 27.656C209.908 27.032 209.948 26.304 209.948 25.472C209.948 24.704 209.908 24.072 209.828 23.576C209.764 23.08 209.644 22.68 209.468 22.376C209.308 22.072 209.092 21.864 208.82 21.752C208.564 21.624 208.244 21.56 207.86 21.56ZM222.141 32C222.029 32 221.885 31.984 221.709 31.952C221.549 31.92 221.381 31.864 221.205 31.784C221.029 31.704 220.861 31.584 220.701 31.424C220.557 31.264 220.437 31.064 220.341 30.824C220.037 31.256 219.637 31.592 219.141 31.832C218.645 32.056 217.989 32.168 217.173 32.168C216.741 32.168 216.309 32.12 215.877 32.024C215.445 31.944 215.061 31.776 214.725 31.52C214.389 31.248 214.117 30.88 213.909 30.416C213.701 29.952 213.597 29.352 213.597 28.616C213.597 27.32 213.973 26.328 214.725 25.64C215.477 24.952 216.525 24.608 217.869 24.608H219.765V23.312C219.765 22.8 219.613 22.384 219.309 22.064C219.021 21.728 218.573 21.56 217.965 21.56C217.277 21.56 216.677 21.6 216.165 21.68C215.653 21.76 215.093 21.888 214.485 22.064V20.312C214.933 20.184 215.437 20.072 215.997 19.976C216.557 19.88 217.133 19.832 217.725 19.832C218.509 19.832 219.157 19.912 219.669 20.072C220.197 20.216 220.613 20.456 220.917 20.792C221.237 21.112 221.461 21.52 221.589 22.016C221.733 22.512 221.805 23.104 221.805 23.792V29.552C221.805 29.792 221.885 29.984 222.045 30.128C222.205 30.256 222.477 30.32 222.861 30.32V32H222.141ZM217.653 30.44C218.069 30.44 218.413 30.376 218.685 30.248C218.957 30.12 219.173 29.968 219.333 29.792C219.493 29.6 219.605 29.408 219.669 29.216C219.733 29.024 219.765 28.872 219.765 28.76V26.24H217.749C217.493 26.24 217.237 26.28 216.981 26.36C216.741 26.44 216.525 26.576 216.333 26.768C216.141 26.944 215.981 27.176 215.853 27.464C215.741 27.736 215.685 28.072 215.685 28.472C215.685 29.224 215.853 29.744 216.189 30.032C216.525 30.304 217.013 30.44 217.653 30.44ZM224.672 32V20H226.352L226.52 21.056C227.256 20.24 228.16 19.832 229.232 19.832C229.984 19.832 230.584 19.976 231.032 20.264C231.48 20.536 231.832 20.896 232.088 21.344C232.856 20.336 233.864 19.832 235.112 19.832C236.344 19.832 237.208 20.176 237.704 20.864C238.216 21.536 238.472 22.608 238.472 24.08V32H236.432V23.84C236.432 23.072 236.32 22.504 236.096 22.136C235.888 21.752 235.44 21.56 234.752 21.56C234.432 21.56 234.136 21.624 233.864 21.752C233.608 21.88 233.384 22.048 233.192 22.256C233 22.464 232.848 22.688 232.736 22.928C232.64 23.152 232.592 23.376 232.592 23.6V32H230.552V23.84C230.552 23.072 230.44 22.504 230.216 22.136C230.008 21.752 229.56 21.56 228.872 21.56C228.552 21.56 228.256 21.624 227.984 21.752C227.728 21.88 227.504 22.048 227.312 22.256C227.12 22.464 226.968 22.688 226.856 22.928C226.76 23.152 226.712 23.376 226.712 23.6V32H224.672ZM242.683 26.72C242.699 27.504 242.755 28.144 242.851 28.64C242.963 29.12 243.107 29.496 243.283 29.768C243.459 30.04 243.667 30.224 243.907 30.32C244.147 30.4 244.419 30.44 244.723 30.44C245.395 30.44 246.003 30.4 246.547 30.32C247.107 30.224 247.571 30.136 247.939 30.056V31.784C247.555 31.896 247.067 31.984 246.475 32.048C245.899 32.128 245.395 32.168 244.963 32.168C244.275 32.168 243.659 32.096 243.115 31.952C242.587 31.808 242.139 31.52 241.771 31.088C241.403 30.656 241.123 30.04 240.931 29.24C240.739 28.424 240.643 27.344 240.643 26C240.643 24.896 240.731 23.952 240.907 23.168C241.099 22.384 241.379 21.744 241.747 21.248C242.115 20.752 242.571 20.392 243.115 20.168C243.659 19.944 244.291 19.832 245.011 19.832C246.387 19.832 247.371 20.288 247.963 21.2C248.571 22.096 248.875 23.336 248.875 24.92V26.72H242.683ZM244.963 21.536C244.579 21.536 244.251 21.592 243.979 21.704C243.707 21.816 243.483 22.008 243.307 22.28C243.131 22.552 242.995 22.92 242.899 23.384C242.803 23.832 242.739 24.4 242.707 25.088H246.883V24.44C246.883 23.528 246.739 22.816 246.451 22.304C246.179 21.792 245.683 21.536 244.963 21.536ZM251.029 32V20H252.709L252.877 21.08C253.661 20.248 254.645 19.832 255.829 19.832C256.517 19.832 257.093 19.92 257.557 20.096C258.021 20.256 258.389 20.512 258.661 20.864C258.949 21.2 259.149 21.64 259.261 22.184C259.389 22.712 259.453 23.344 259.453 24.08V32H257.413V23.84C257.413 23.088 257.285 22.52 257.029 22.136C256.789 21.752 256.269 21.56 255.469 21.56C255.133 21.56 254.813 21.624 254.509 21.752C254.221 21.88 253.965 22.048 253.741 22.256C253.533 22.464 253.365 22.688 253.237 22.928C253.125 23.152 253.069 23.376 253.069 23.6V32H251.029ZM264.25 21.8V29.12C264.25 29.232 264.266 29.368 264.298 29.528C264.33 29.672 264.386 29.816 264.466 29.96C264.562 30.088 264.682 30.2 264.826 30.296C264.986 30.392 265.194 30.44 265.45 30.44C265.818 30.44 266.13 30.416 266.386 30.368C266.642 30.304 266.858 30.248 267.034 30.2V31.88C266.874 31.928 266.594 31.984 266.194 32.048C265.81 32.128 265.402 32.168 264.97 32.168C264.49 32.168 264.074 32.088 263.722 31.928C263.37 31.768 263.082 31.544 262.858 31.256C262.634 30.968 262.466 30.632 262.354 30.248C262.258 29.864 262.21 29.448 262.21 29V21.8H260.65V20H262.21V17.12H264.25V20H267.034V21.8H264.25ZM277.241 25.76C277.241 27.024 277.145 28.072 276.953 28.904C276.761 29.72 276.473 30.376 276.089 30.872C275.705 31.352 275.225 31.688 274.649 31.88C274.089 32.072 273.433 32.168 272.681 32.168C271.945 32.168 271.289 32.072 270.713 31.88C270.153 31.688 269.681 31.352 269.297 30.872C268.913 30.376 268.617 29.72 268.409 28.904C268.217 28.072 268.121 27.024 268.121 25.76C268.121 23.712 268.489 22.216 269.225 21.272C269.961 20.312 271.113 19.832 272.681 19.832C274.249 19.832 275.401 20.312 276.137 21.272C276.873 22.216 277.241 23.712 277.241 25.76ZM275.153 26.12C275.153 25.272 275.113 24.552 275.033 23.96C274.953 23.368 274.817 22.896 274.625 22.544C274.449 22.176 274.201 21.912 273.881 21.752C273.561 21.592 273.161 21.512 272.681 21.512C272.201 21.512 271.801 21.592 271.481 21.752C271.161 21.912 270.905 22.176 270.713 22.544C270.537 22.896 270.409 23.368 270.329 23.96C270.249 24.552 270.209 25.272 270.209 26.12C270.209 27.688 270.393 28.808 270.761 29.48C271.129 30.152 271.769 30.488 272.681 30.488C273.593 30.488 274.233 30.152 274.601 29.48C274.969 28.808 275.153 27.688 275.153 26.12ZM286.043 28.52C286.043 29.848 285.675 30.792 284.939 31.352C284.219 31.896 283.243 32.168 282.011 32.168C281.323 32.168 280.739 32.12 280.259 32.024C279.779 31.944 279.403 31.864 279.131 31.784V30.032C279.275 30.064 279.459 30.104 279.683 30.152C279.923 30.184 280.179 30.224 280.451 30.272C280.723 30.304 281.003 30.336 281.291 30.368C281.595 30.4 281.891 30.416 282.179 30.416C282.499 30.416 282.763 30.368 282.971 30.272C283.195 30.16 283.371 30.024 283.499 29.864C283.643 29.688 283.747 29.496 283.811 29.288C283.875 29.064 283.907 28.848 283.907 28.64C283.907 28.064 283.803 27.64 283.595 27.368C283.403 27.096 283.003 26.904 282.395 26.792C281.163 26.568 280.291 26.184 279.779 25.64C279.283 25.08 279.035 24.352 279.035 23.456C279.035 22.8 279.139 22.248 279.347 21.8C279.555 21.336 279.835 20.96 280.187 20.672C280.555 20.384 280.979 20.176 281.459 20.048C281.955 19.904 282.491 19.832 283.067 19.832C283.691 19.832 284.211 19.888 284.627 20C285.059 20.096 285.395 20.176 285.635 20.24V21.992C285.219 21.896 284.819 21.8 284.435 21.704C284.051 21.608 283.531 21.56 282.875 21.56C282.507 21.56 282.203 21.616 281.963 21.728C281.739 21.824 281.563 21.96 281.435 22.136C281.307 22.296 281.219 22.48 281.171 22.688C281.139 22.896 281.123 23.112 281.123 23.336C281.123 24.216 281.635 24.736 282.659 24.896C283.907 25.104 284.779 25.496 285.275 26.072C285.787 26.648 286.043 27.464 286.043 28.52Z" fill="white"/>
<circle cx="22.5" cy="22.5" r="22.5" fill="#8A2424"/>
<path d="M26.12 37V24.12H17.88V37H14.4V9H17.88V21.16H26.12V9H29.6V37H26.12Z" fill="#3C434A"/>
<path d="M12.8 26.96C12.8 29.12 12.6667 30.88 12.4 32.24C12.1333 33.5733 11.7067 34.6133 11.12 35.36C10.56 36.1067 9.82667 36.6133 8.92 36.88C8.04 37.1467 6.96 37.28 5.68 37.28C5.44 37.28 5.14667 37.2667 4.8 37.24C4.45333 37.2133 4.08 37.1733 3.68 37.12C3.28 37.0933 2.88 37.0533 2.48 37C2.08 36.9733 1.72 36.9333 1.4 36.88V33.92C1.69333 33.9733 2.04 34.0267 2.44 34.08C2.84 34.1067 3.22667 34.1467 3.6 34.2C4 34.2267 4.36 34.2533 4.68 34.28C5.02667 34.28 5.28 34.28 5.44 34.28C6.16 34.28 6.76 34.2 7.24 34.04C7.74667 33.88 8.14667 33.56 8.44 33.08C8.76 32.5733 8.98667 31.8533 9.12 30.92C9.25333 29.9867 9.32 28.76 9.32 27.24V11.92H2.88V9H12.8V26.96Z" fill="#3C434A"/>
<path d="M42.44 17.68C42.44 15.68 42.16 14.1733 41.6 13.16C41.0667 12.12 40.08 11.6 38.64 11.6C37.52 11.6 36.6133 11.64 35.92 11.72C35.52 11.7733 35.1733 11.8133 34.88 11.84V23.52H38.64C39.2 23.52 39.7067 23.4267 40.16 23.24C40.64 23.0267 41.04 22.6933 41.36 22.24C41.7067 21.7867 41.9733 21.1867 42.16 20.44C42.3467 19.6933 42.44 18.7733 42.44 17.68ZM46 17.4C46 18.92 45.8533 20.2533 45.56 21.4C45.2933 22.52 44.8533 23.4533 44.24 24.2C43.6267 24.9467 42.8267 25.5067 41.84 25.88C40.8533 26.2533 39.6533 26.44 38.24 26.44H34.88V37H31.4V9C32.0667 8.94667 32.7733 8.89333 33.52 8.84C34.16 8.78667 34.88 8.76 35.68 8.76C36.5067 8.73333 37.3333 8.72 38.16 8.72C39.68 8.72 40.9467 8.94667 41.96 9.4C42.9733 9.82667 43.7733 10.44 44.36 11.24C44.9733 12.0133 45.4 12.9333 45.64 14C45.88 15.04 46 16.1733 46 17.4Z" fill="#3C434A"/>
</svg>
